<?xml version="1.0" encoding="UTF-8" standalone="no"?>
<!DOCTYPE svg PUBLIC "-//W3C//DTD SVG 20010904//EN"
              "http://www.w3.org/TR/2001/REC-SVG-20010904/DTD/svg10.dtd">

<svg xmlns="http://www.w3.org/2000/svg"
     width="0.5in" height="0.5in"
     viewBox="0 0 564 574">
  <path id="greyCircles"
        fill="#bbbcbe"
        d="M 475.00,481.00
           C 475.00,481.00 475.00,476.00 475.00,476.00
             475.00,476.00 273.00,476.00 273.00,476.00
             273.00,476.00 260.87,475.65 260.87,475.65
             260.87,475.65 250.43,474.83 250.43,474.83
             225.04,472.27 201.50,464.10 179.00,452.22
             155.82,439.99 131.97,419.81 116.13,399.00
             66.96,334.43 59.77,248.43 101.45,178.00
             113.20,158.15 129.30,139.80 147.00,125.08
             164.98,110.13 182.14,100.40 204.00,92.32
             221.91,85.70 245.88,80.23 265.00,80.00
             295.42,79.65 326.29,84.70 354.00,97.78
             381.84,110.92 403.42,127.61 423.42,151.00
             449.79,181.85 463.73,217.06 469.00,257.00
             469.00,257.00 474.00,257.00 474.00,257.00
             473.94,237.05 464.15,206.86 455.25,189.00
             425.97,130.30 374.53,90.26 310.00,77.80
             310.00,77.80 286.00,74.96 286.00,74.96
             286.00,74.96 279.00,74.96 279.00,74.96
             279.00,74.96 271.88,74.88 271.88,74.88
             271.88,74.88 262.00,75.00 262.00,75.00
             190.06,75.84 118.11,125.09 88.31,190.00
             77.66,213.19 69.04,243.36 69.00,269.00
             69.00,269.00 69.00,287.00 69.00,287.00
             69.02,299.08 71.69,315.22 74.63,327.00
             85.55,370.91 109.12,407.33 144.00,436.08
             174.98,461.61 222.51,480.94 263.00,481.00
             263.00,481.00 475.00,481.00 475.00,481.00 Z
           M 475.00,442.00
           C 475.00,442.00 475.00,422.00 475.00,422.00
             475.00,422.00 272.50,421.62 272.50,421.62
             272.50,421.62 261.88,421.00 261.88,421.00
             261.88,421.00 247.00,419.56 247.00,419.56
             228.13,416.52 205.51,406.75 190.00,395.70
             170.52,381.82 152.62,360.93 142.86,339.00
             135.98,323.55 130.20,302.98 130.00,286.00
             129.85,273.13 130.61,261.61 133.50,249.00
             144.67,200.29 181.54,160.96 229.00,145.75
             296.29,124.18 370.23,157.58 399.30,222.00
             403.83,232.02 409.08,246.05 410.00,257.00
             410.00,257.00 430.00,257.00 430.00,257.00
             429.67,241.86 422.00,221.51 415.25,208.00
             389.91,157.32 340.40,124.03 284.00,119.91
             284.00,119.91 274.00,119.00 274.00,119.00
             274.00,119.00 270.00,119.00 270.00,119.00
             270.00,119.00 260.00,119.91 260.00,119.91
             203.77,123.78 152.75,156.04 127.27,207.00
             114.43,232.68 109.96,256.56 110.00,285.00
             110.07,329.46 132.15,372.82 165.00,401.95
             188.64,422.91 225.90,441.71 257.91,442.09
             257.91,442.09 263.35,442.00 263.35,442.00
             263.35,442.00 278.00,442.00 278.00,442.00
             278.00,442.00 475.00,442.00 475.00,442.00 Z
           M 290.00,333.99
           C 290.00,333.99 290.00,310.00 290.00,310.00
             290.00,310.00 311.00,310.00 311.00,310.00
             311.00,310.00 311.00,320.00 311.00,320.00
             317.49,314.63 322.69,306.37 324.00,298.00
             324.00,298.00 276.00,298.00 276.00,298.00
             274.04,298.00 270.35,297.96 268.13,298.17
             265.61,299.20 264.35,302.78 261.99,304.59
             257.97,307.65 251.91,308.80 247.00,307.58
             243.67,306.76 240.41,304.43 238.16,301.91
             232.39,293.09 232.43,285.30 239.04,278.04
             241.30,275.77 242.66,274.78 247.31,273.28
             250.03,272.69 258.62,273.06 262.90,276.61
             264.71,278.04 266.09,280.53 267.04,281.91
             269.22,282.13 273.19,282.00 275.00,282.00
             275.00,282.00 327.00,282.00 327.00,282.00
             327.00,269.58 326.22,261.98 319.54,251.00
             314.58,242.86 308.24,236.65 300.00,231.87
             290.15,226.17 281.35,223.88 270.00,224.00
             226.90,224.49 201.61,270.90 221.79,308.00
             224.99,313.87 229.70,320.02 235.00,324.10
             240.73,328.51 246.08,331.77 253.00,333.99
             268.15,338.79 275.13,336.99 290.00,333.99 Z" />
             <path id="blueLetters"
        fill="#162f58"
        d="
           M 250.64,171.18
           C 225.26,176.37 210.34,182.70 189.84,204.09
             184.38,209.78 177.11,219.12 173.31,226.00
             140.91,284.67 168.29,362.19 232.00,385.31
             241.96,388.92 257.42,391.87 268.00,392.00
             268.00,392.00 272.00,392.00 272.00,392.00
             275.00,392.00 283.62,392.19 286.00,390.69
             287.38,387.62 285.61,372.58 282.75,370.69
             279.19,369.92 267.38,370.69 263.81,370.25
             254.01,370.14 240.78,365.57 232.00,361.24
             179.28,335.27 163.46,264.83 204.09,221.00
             218.02,205.97 233.88,196.49 254.00,192.21
             258.44,191.27 265.73,190.36 270.25,190.19
             273.56,190.15 280.30,190.22 283.74,189.96
             285.11,187.02 286.94,172.69 285.69,170.00
             282.96,168.96 279.35,168.92 276.81,169.12
             273.25,168.44 250.64,171.18 250.64,171.18 ZM 292.00,312.00
           C 292.00,312.00 292.00,367.00 292.00,367.00
             292.03,381.54 302.46,391.82 317.00,392.00
             328.42,392.13 337.71,391.91 345.61,381.99
             350.08,376.37 350.99,369.91 351.00,363.00
             351.00,363.00 351.00,312.00 351.00,312.00
             351.00,312.00 334.00,312.00 334.00,312.00
             334.00,312.00 334.00,359.00 334.00,359.00
             333.96,362.32 333.75,365.93 332.35,369.00
             329.77,374.67 323.17,378.62 317.00,376.26
             310.89,373.93 309.09,368.98 309.00,363.00
             309.00,363.00 309.00,312.00 309.00,312.00
             309.00,312.00 292.00,312.00 292.00,312.00 Z
           M 378.00,328.00
           C 378.00,328.00 378.00,392.00 378.00,392.00
             378.00,392.00 395.00,392.00 395.00,392.00
             395.00,392.00 395.00,328.00 395.00,328.00
             398.46,328.00 411.56,327.97 415.94,328.00
             415.97,321.62 415.97,319.06 415.91,316.06
             416.00,313.38 415.97,315.47 415.91,311.94
             414.19,312.00 410.62,312.03 409.00,312.00
             409.00,312.00 366.00,312.00 366.00,312.00
             364.01,312.00 360.09,312.03 357.03,312.12
             356.97,315.88 357.00,324.22 357.12,327.91
             361.00,328.00 374.54,328.00 378.00,328.00 Z
           M 474.99,392.01
           C 475.00,390.48 475.00,385.54 475.00,377.00
             475.00,377.00 440.00,377.00 440.00,377.00
             440.00,377.00 440.00,359.00 440.00,359.00
             440.00,359.00 470.00,359.00 470.00,359.00
             470.00,359.00 470.00,344.00 470.00,344.00
             470.00,344.00 440.00,344.00 440.00,344.00
             440.00,344.00 440.00,327.00 440.00,327.00
             440.00,327.00 475.00,327.00 475.00,327.00
             475.00,324.23 474.99,313.89 474.97,312.01
             473.09,311.99 468.30,312.00 466.00,312.00
             466.00,312.00 431.00,312.00 431.00,312.00
             429.01,312.00 423.89,311.98 422.02,312.00
             422.00,314.36 422.00,326.61 422.00,330.00
             422.00,330.00 422.00,383.00 422.00,383.00
             422.00,385.30 422.00,390.16 422.01,392.00
             424.49,392.01 433.34,392.00 436.00,392.00
             436.00,392.00 468.00,392.00 468.00,392.00
             470.86,391.94 473.82,392.00 474.99,392.01 Z
           M 277.00,450.00
           C 277.00,450.00 277.00,470.00 277.00,470.00
             277.00,470.00 281.00,470.00 281.00,470.00
             281.00,470.00 281.00,462.00 281.00,462.00
             281.00,462.00 289.00,462.00 289.00,462.00
             289.00,462.00 289.00,459.00 289.00,459.00
             289.00,459.00 281.00,459.00 281.00,459.00
             281.00,459.00 281.00,454.00 281.00,454.00
             281.00,454.00 290.00,454.00 290.00,454.00
             290.00,454.00 290.00,450.00 290.00,450.00
             290.00,450.00 277.00,450.00 277.00,450.00 Z
           M 310.01,450.02
           C 308.19,454.54 303.00,470.00 303.00,470.00
             303.00,470.00 307.00,470.00 307.00,470.00
             307.00,470.00 308.33,466.00 308.33,466.00
             308.33,466.00 313.44,466.00 313.44,466.00
             313.44,466.00 315.00,470.00 315.00,470.00
             315.00,470.00 319.00,470.00 319.00,470.00
             319.00,470.00 313.77,454.52 311.97,450.01
             311.25,450.00 311.29,450.00 310.01,450.02 Z
           M 346.16,467.03
           C 344.66,466.31 345.28,466.59 343.39,465.72
             342.86,466.50 339.69,466.68 338.78,465.97
             337.50,464.91 337.85,461.28 337.81,459.81
             337.81,458.57 337.79,455.57 338.75,454.44
             340.09,452.86 342.64,453.60 343.01,454.00
             344.72,452.88 343.77,453.50 345.96,452.09
             342.30,448.57 337.48,449.43 334.96,454.05
             333.59,456.77 333.65,464.28 334.96,466.77
             338.02,471.44 343.71,469.79 346.16,467.03 Z
           M 362.00,450.00
           C 362.00,450.00 362.00,470.00 362.00,470.00
             362.00,470.00 366.00,470.00 366.00,470.00
             366.00,470.00 366.00,450.00 366.00,450.00
             366.00,450.00 362.00,450.00 362.00,450.00 Z
           M 384.00,450.00
           C 384.00,450.00 384.00,470.00 384.00,470.00
             384.00,470.00 396.00,470.00 396.00,470.00
             396.00,470.00 396.00,467.00 396.00,467.00
             396.00,467.00 388.00,467.00 388.00,467.00
             388.00,467.00 387.98,449.99 387.98,449.99
             387.98,449.99 384.00,450.00 384.00,450.00 Z
           M 412.00,450.00
           C 412.00,450.00 412.00,470.00 412.00,470.00
             412.00,470.00 416.00,470.00 416.00,470.00
             416.00,470.00 416.00,450.00 416.00,450.00
             416.00,450.00 412.00,450.00 412.00,450.00 Z
           M 432.00,450.00
           C 432.00,450.00 432.00,453.00 432.00,453.00
             432.00,453.00 436.00,453.00 436.00,453.00
             436.00,453.00 436.00,470.00 436.00,470.00
             436.00,470.00 440.00,470.00 440.00,470.00
             440.00,470.00 440.00,453.00 440.00,453.00
             440.00,453.00 444.00,453.00 444.00,453.00
             444.00,453.00 444.00,450.01 444.00,450.01
             444.00,450.01 432.00,450.00 432.00,450.00 Z
           M 462.97,450.02
           C 461.93,449.98 461.10,450.01 459.53,449.98
             463.02,457.82 461.31,452.98 465.01,461.04
             465.00,462.96 464.98,464.80 465.00,470.00
             465.00,470.00 469.00,470.00 469.00,470.00
             469.01,465.87 468.97,463.20 468.99,461.04
             469.94,459.05 472.22,455.10 474.53,450.02
             472.68,450.04 473.21,450.00 471.01,450.03
             470.40,451.08 468.16,455.17 467.03,457.04
             467.03,457.04 463.38,450.97 462.97,450.02 Z
           M 311.00,457.00
           C 311.00,457.00 312.87,463.02 312.87,463.02
             312.87,463.02 308.98,463.02 308.98,463.02
             308.98,463.02 311.00,457.00 311.00,457.00 Z
           M 348.75,466.12M 264.73,197.91"/> 
        <path id="yellowCenter"
        fill="#eabc33"
        d="
           M 475.00,294.00
           C 475.00,294.00 475.00,287.00 475.00,287.00
             475.00,287.00 274.00,287.00 274.00,287.00
             271.59,287.00 268.17,287.13 264.91,286.91
             264.78,284.74 262.26,279.93 257.00,277.89
             248.29,274.52 238.93,279.41 238.11,289.00
             237.04,301.41 249.53,306.90 257.98,302.55
             265.12,298.87 264.65,295.17 265.22,294.00
             265.22,294.00 340.00,294.00 340.00,294.00
             340.00,294.00 475.00,294.00 475.00,294.00 Z" />
</svg>
